<?xml version="1.0" encoding="utf-8" standalone="no"?>
<!DOCTYPE svg PUBLIC "-//W3C//DTD SVG 1.1//EN"
  "http://www.w3.org/Graphics/SVG/1.1/DTD/svg11.dtd">
<!-- Created with matplotlib (https://matplotlib.org/) -->
<svg height="216pt" version="1.1" viewBox="0 0 1728 216" width="1728pt" xmlns="http://www.w3.org/2000/svg" xmlns:xlink="http://www.w3.org/1999/xlink">
 <defs>
  <style type="text/css">
*{stroke-linecap:butt;stroke-linejoin:round;}
  </style>
 </defs>
 <g id="figure_1">
  <g id="patch_1">
   <path d="M 0 216 
L 1728 216 
L 1728 0 
L 0 0 
z
" style="fill:#ffffff;"/>
  </g>
  <g id="axes_1">
   <g id="patch_2">
    <path d="M 216 189 
L 1555.2 189 
L 1555.2 25.92 
L 216 25.92 
z
" style="fill:#ffffff;"/>
   </g>
   <g id="matplotlib.axis_1">
    <g id="xtick_1">
     <g id="line2d_1">
      <path clip-path="url(#pab15c3f3f3)" d="M 358.375916 189 
L 358.375916 25.92 
" style="fill:none;stroke:#b0b0b0;stroke-linecap:square;stroke-width:0.8;"/>
     </g>
     <g id="line2d_2">
      <defs>
       <path d="M 0 0 
L 0 3.5 
" id="m4215592516" style="stroke:#000000;stroke-width:0.8;"/>
      </defs>
      <g>
       <use style="stroke:#000000;stroke-width:0.8;" x="358.375916" xlink:href="#m4215592516" y="189"/>
      </g>
     </g>
     <g id="text_1">
      <!-- 23:54:00 -->
      <defs>
       <path d="M 19.1875 8.296875 
L 53.609375 8.296875 
L 53.609375 0 
L 7.328125 0 
L 7.328125 8.296875 
Q 12.9375 14.109375 22.625 23.890625 
Q 32.328125 33.6875 34.8125 36.53125 
Q 39.546875 41.84375 41.421875 45.53125 
Q 43.3125 49.21875 43.3125 52.78125 
Q 43.3125 58.59375 39.234375 62.25 
Q 35.15625 65.921875 28.609375 65.921875 
Q 23.96875 65.921875 18.8125 64.3125 
Q 13.671875 62.703125 7.8125 59.421875 
L 7.8125 69.390625 
Q 13.765625 71.78125 18.9375 73 
Q 24.125 74.21875 28.421875 74.21875 
Q 39.75 74.21875 46.484375 68.546875 
Q 53.21875 62.890625 53.21875 53.421875 
Q 53.21875 48.921875 51.53125 44.890625 
Q 49.859375 40.875 45.40625 35.40625 
Q 44.1875 33.984375 37.640625 27.21875 
Q 31.109375 20.453125 19.1875 8.296875 
z
" id="DejaVuSans-50"/>
       <path d="M 40.578125 39.3125 
Q 47.65625 37.796875 51.625 33 
Q 55.609375 28.21875 55.609375 21.1875 
Q 55.609375 10.40625 48.1875 4.484375 
Q 40.765625 -1.421875 27.09375 -1.421875 
Q 22.515625 -1.421875 17.65625 -0.515625 
Q 12.796875 0.390625 7.625 2.203125 
L 7.625 11.71875 
Q 11.71875 9.328125 16.59375 8.109375 
Q 21.484375 6.890625 26.8125 6.890625 
Q 36.078125 6.890625 40.9375 10.546875 
Q 45.796875 14.203125 45.796875 21.1875 
Q 45.796875 27.640625 41.28125 31.265625 
Q 36.765625 34.90625 28.71875 34.90625 
L 20.21875 34.90625 
L 20.21875 43.015625 
L 29.109375 43.015625 
Q 36.375 43.015625 40.234375 45.921875 
Q 44.09375 48.828125 44.09375 54.296875 
Q 44.09375 59.90625 40.109375 62.90625 
Q 36.140625 65.921875 28.71875 65.921875 
Q 24.65625 65.921875 20.015625 65.03125 
Q 15.375 64.15625 9.8125 62.3125 
L 9.8125 71.09375 
Q 15.4375 72.65625 20.34375 73.4375 
Q 25.25 74.21875 29.59375 74.21875 
Q 40.828125 74.21875 47.359375 69.109375 
Q 53.90625 64.015625 53.90625 55.328125 
Q 53.90625 49.265625 50.4375 45.09375 
Q 46.96875 40.921875 40.578125 39.3125 
z
" id="DejaVuSans-51"/>
       <path d="M 11.71875 12.40625 
L 22.015625 12.40625 
L 22.015625 0 
L 11.71875 0 
z
M 11.71875 51.703125 
L 22.015625 51.703125 
L 22.015625 39.3125 
L 11.71875 39.3125 
z
" id="DejaVuSans-58"/>
       <path d="M 10.796875 72.90625 
L 49.515625 72.90625 
L 49.515625 64.59375 
L 19.828125 64.59375 
L 19.828125 46.734375 
Q 21.96875 47.46875 24.109375 47.828125 
Q 26.265625 48.1875 28.421875 48.1875 
Q 40.625 48.1875 47.75 41.5 
Q 54.890625 34.8125 54.890625 23.390625 
Q 54.890625 11.625 47.5625 5.09375 
Q 40.234375 -1.421875 26.90625 -1.421875 
Q 22.3125 -1.421875 17.546875 -0.640625 
Q 12.796875 0.140625 7.71875 1.703125 
L 7.71875 11.625 
Q 12.109375 9.234375 16.796875 8.0625 
Q 21.484375 6.890625 26.703125 6.890625 
Q 35.15625 6.890625 40.078125 11.328125 
Q 45.015625 15.765625 45.015625 23.390625 
Q 45.015625 31 40.078125 35.4375 
Q 35.15625 39.890625 26.703125 39.890625 
Q 22.75 39.890625 18.8125 39.015625 
Q 14.890625 38.140625 10.796875 36.28125 
z
" id="DejaVuSans-53"/>
       <path d="M 37.796875 64.3125 
L 12.890625 25.390625 
L 37.796875 25.390625 
z
M 35.203125 72.90625 
L 47.609375 72.90625 
L 47.609375 25.390625 
L 58.015625 25.390625 
L 58.015625 17.1875 
L 47.609375 17.1875 
L 47.609375 0 
L 37.796875 0 
L 37.796875 17.1875 
L 4.890625 17.1875 
L 4.890625 26.703125 
z
" id="DejaVuSans-52"/>
       <path d="M 31.78125 66.40625 
Q 24.171875 66.40625 20.328125 58.90625 
Q 16.5 51.421875 16.5 36.375 
Q 16.5 21.390625 20.328125 13.890625 
Q 24.171875 6.390625 31.78125 6.390625 
Q 39.453125 6.390625 43.28125 13.890625 
Q 47.125 21.390625 47.125 36.375 
Q 47.125 51.421875 43.28125 58.90625 
Q 39.453125 66.40625 31.78125 66.40625 
z
M 31.78125 74.21875 
Q 44.046875 74.21875 50.515625 64.515625 
Q 56.984375 54.828125 56.984375 36.375 
Q 56.984375 17.96875 50.515625 8.265625 
Q 44.046875 -1.421875 31.78125 -1.421875 
Q 19.53125 -1.421875 13.0625 8.265625 
Q 6.59375 17.96875 6.59375 36.375 
Q 6.59375 54.828125 13.0625 64.515625 
Q 19.53125 74.21875 31.78125 74.21875 
z
" id="DejaVuSans-48"/>
      </defs>
      <g transform="translate(335.919666 203.598437)scale(0.1 -0.1)">
       <use xlink:href="#DejaVuSans-50"/>
       <use x="63.623047" xlink:href="#DejaVuSans-51"/>
       <use x="127.246094" xlink:href="#DejaVuSans-58"/>
       <use x="160.9375" xlink:href="#DejaVuSans-53"/>
       <use x="224.560547" xlink:href="#DejaVuSans-52"/>
       <use x="288.183594" xlink:href="#DejaVuSans-58"/>
       <use x="321.875" xlink:href="#DejaVuSans-48"/>
       <use x="385.498047" xlink:href="#DejaVuSans-48"/>
      </g>
     </g>
    </g>
    <g id="xtick_2">
     <g id="line2d_3">
      <path clip-path="url(#pab15c3f3f3)" d="M 511.194458 189 
L 511.194458 25.92 
" style="fill:none;stroke:#b0b0b0;stroke-linecap:square;stroke-width:0.8;"/>
     </g>
     <g id="line2d_4">
      <g>
       <use style="stroke:#000000;stroke-width:0.8;" x="511.194458" xlink:href="#m4215592516" y="189"/>
      </g>
     </g>
     <g id="text_2">
      <!-- 23:54:30 -->
      <g transform="translate(488.738208 203.598437)scale(0.1 -0.1)">
       <use xlink:href="#DejaVuSans-50"/>
       <use x="63.623047" xlink:href="#DejaVuSans-51"/>
       <use x="127.246094" xlink:href="#DejaVuSans-58"/>
       <use x="160.9375" xlink:href="#DejaVuSans-53"/>
       <use x="224.560547" xlink:href="#DejaVuSans-52"/>
       <use x="288.183594" xlink:href="#DejaVuSans-58"/>
       <use x="321.875" xlink:href="#DejaVuSans-51"/>
       <use x="385.498047" xlink:href="#DejaVuSans-48"/>
      </g>
     </g>
    </g>
    <g id="xtick_3">
     <g id="line2d_5">
      <path clip-path="url(#pab15c3f3f3)" d="M 664.013 189 
L 664.013 25.92 
" style="fill:none;stroke:#b0b0b0;stroke-linecap:square;stroke-width:0.8;"/>
     </g>
     <g id="line2d_6">
      <g>
       <use style="stroke:#000000;stroke-width:0.8;" x="664.013" xlink:href="#m4215592516" y="189"/>
      </g>
     </g>
     <g id="text_3">
      <!-- 23:55:00 -->
      <g transform="translate(641.55675 203.598437)scale(0.1 -0.1)">
       <use xlink:href="#DejaVuSans-50"/>
       <use x="63.623047" xlink:href="#DejaVuSans-51"/>
       <use x="127.246094" xlink:href="#DejaVuSans-58"/>
       <use x="160.9375" xlink:href="#DejaVuSans-53"/>
       <use x="224.560547" xlink:href="#DejaVuSans-53"/>
       <use x="288.183594" xlink:href="#DejaVuSans-58"/>
       <use x="321.875" xlink:href="#DejaVuSans-48"/>
       <use x="385.498047" xlink:href="#DejaVuSans-48"/>
      </g>
     </g>
    </g>
    <g id="xtick_4">
     <g id="line2d_7">
      <path clip-path="url(#pab15c3f3f3)" d="M 816.831604 189 
L 816.831604 25.92 
" style="fill:none;stroke:#b0b0b0;stroke-linecap:square;stroke-width:0.8;"/>
     </g>
     <g id="line2d_8">
      <g>
       <use style="stroke:#000000;stroke-width:0.8;" x="816.831604" xlink:href="#m4215592516" y="189"/>
      </g>
     </g>
     <g id="text_4">
      <!-- 23:55:30 -->
      <g transform="translate(794.375354 203.598437)scale(0.1 -0.1)">
       <use xlink:href="#DejaVuSans-50"/>
       <use x="63.623047" xlink:href="#DejaVuSans-51"/>
       <use x="127.246094" xlink:href="#DejaVuSans-58"/>
       <use x="160.9375" xlink:href="#DejaVuSans-53"/>
       <use x="224.560547" xlink:href="#DejaVuSans-53"/>
       <use x="288.183594" xlink:href="#DejaVuSans-58"/>
       <use x="321.875" xlink:href="#DejaVuSans-51"/>
       <use x="385.498047" xlink:href="#DejaVuSans-48"/>
      </g>
     </g>
    </g>
    <g id="xtick_5">
     <g id="line2d_9">
      <path clip-path="url(#pab15c3f3f3)" d="M 969.650208 189 
L 969.650208 25.92 
" style="fill:none;stroke:#b0b0b0;stroke-linecap:square;stroke-width:0.8;"/>
     </g>
     <g id="line2d_10">
      <g>
       <use style="stroke:#000000;stroke-width:0.8;" x="969.650208" xlink:href="#m4215592516" y="189"/>
      </g>
     </g>
     <g id="text_5">
      <!-- 23:56:00 -->
      <defs>
       <path d="M 33.015625 40.375 
Q 26.375 40.375 22.484375 35.828125 
Q 18.609375 31.296875 18.609375 23.390625 
Q 18.609375 15.53125 22.484375 10.953125 
Q 26.375 6.390625 33.015625 6.390625 
Q 39.65625 6.390625 43.53125 10.953125 
Q 47.40625 15.53125 47.40625 23.390625 
Q 47.40625 31.296875 43.53125 35.828125 
Q 39.65625 40.375 33.015625 40.375 
z
M 52.59375 71.296875 
L 52.59375 62.3125 
Q 48.875 64.0625 45.09375 64.984375 
Q 41.3125 65.921875 37.59375 65.921875 
Q 27.828125 65.921875 22.671875 59.328125 
Q 17.53125 52.734375 16.796875 39.40625 
Q 19.671875 43.65625 24.015625 45.921875 
Q 28.375 48.1875 33.59375 48.1875 
Q 44.578125 48.1875 50.953125 41.515625 
Q 57.328125 34.859375 57.328125 23.390625 
Q 57.328125 12.15625 50.6875 5.359375 
Q 44.046875 -1.421875 33.015625 -1.421875 
Q 20.359375 -1.421875 13.671875 8.265625 
Q 6.984375 17.96875 6.984375 36.375 
Q 6.984375 53.65625 15.1875 63.9375 
Q 23.390625 74.21875 37.203125 74.21875 
Q 40.921875 74.21875 44.703125 73.484375 
Q 48.484375 72.75 52.59375 71.296875 
z
" id="DejaVuSans-54"/>
      </defs>
      <g transform="translate(947.193958 203.598437)scale(0.1 -0.1)">
       <use xlink:href="#DejaVuSans-50"/>
       <use x="63.623047" xlink:href="#DejaVuSans-51"/>
       <use x="127.246094" xlink:href="#DejaVuSans-58"/>
       <use x="160.9375" xlink:href="#DejaVuSans-53"/>
       <use x="224.560547" xlink:href="#DejaVuSans-54"/>
       <use x="288.183594" xlink:href="#DejaVuSans-58"/>
       <use x="321.875" xlink:href="#DejaVuSans-48"/>
       <use x="385.498047" xlink:href="#DejaVuSans-48"/>
      </g>
     </g>
    </g>
    <g id="xtick_6">
     <g id="line2d_11">
      <path clip-path="url(#pab15c3f3f3)" d="M 1122.46875 189 
L 1122.46875 25.92 
" style="fill:none;stroke:#b0b0b0;stroke-linecap:square;stroke-width:0.8;"/>
     </g>
     <g id="line2d_12">
      <g>
       <use style="stroke:#000000;stroke-width:0.8;" x="1122.46875" xlink:href="#m4215592516" y="189"/>
      </g>
     </g>
     <g id="text_6">
      <!-- 23:56:30 -->
      <g transform="translate(1100.0125 203.598437)scale(0.1 -0.1)">
       <use xlink:href="#DejaVuSans-50"/>
       <use x="63.623047" xlink:href="#DejaVuSans-51"/>
       <use x="127.246094" xlink:href="#DejaVuSans-58"/>
       <use x="160.9375" xlink:href="#DejaVuSans-53"/>
       <use x="224.560547" xlink:href="#DejaVuSans-54"/>
       <use x="288.183594" xlink:href="#DejaVuSans-58"/>
       <use x="321.875" xlink:href="#DejaVuSans-51"/>
       <use x="385.498047" xlink:href="#DejaVuSans-48"/>
      </g>
     </g>
    </g>
    <g id="xtick_7">
     <g id="line2d_13">
      <path clip-path="url(#pab15c3f3f3)" d="M 1275.287292 189 
L 1275.287292 25.92 
" style="fill:none;stroke:#b0b0b0;stroke-linecap:square;stroke-width:0.8;"/>
     </g>
     <g id="line2d_14">
      <g>
       <use style="stroke:#000000;stroke-width:0.8;" x="1275.287292" xlink:href="#m4215592516" y="189"/>
      </g>
     </g>
     <g id="text_7">
      <!-- 23:57:00 -->
      <defs>
       <path d="M 8.203125 72.90625 
L 55.078125 72.90625 
L 55.078125 68.703125 
L 28.609375 0 
L 18.3125 0 
L 43.21875 64.59375 
L 8.203125 64.59375 
z
" id="DejaVuSans-55"/>
      </defs>
      <g transform="translate(1252.831042 203.598437)scale(0.1 -0.1)">
       <use xlink:href="#DejaVuSans-50"/>
       <use x="63.623047" xlink:href="#DejaVuSans-51"/>
       <use x="127.246094" xlink:href="#DejaVuSans-58"/>
       <use x="160.9375" xlink:href="#DejaVuSans-53"/>
       <use x="224.560547" xlink:href="#DejaVuSans-55"/>
       <use x="288.183594" xlink:href="#DejaVuSans-58"/>
       <use x="321.875" xlink:href="#DejaVuSans-48"/>
       <use x="385.498047" xlink:href="#DejaVuSans-48"/>
      </g>
     </g>
    </g>
    <g id="xtick_8">
     <g id="line2d_15">
      <path clip-path="url(#pab15c3f3f3)" d="M 1428.105835 189 
L 1428.105835 25.92 
" style="fill:none;stroke:#b0b0b0;stroke-linecap:square;stroke-width:0.8;"/>
     </g>
     <g id="line2d_16">
      <g>
       <use style="stroke:#000000;stroke-width:0.8;" x="1428.105835" xlink:href="#m4215592516" y="189"/>
      </g>
     </g>
     <g id="text_8">
      <!-- 23:57:30 -->
      <g transform="translate(1405.649585 203.598437)scale(0.1 -0.1)">
       <use xlink:href="#DejaVuSans-50"/>
       <use x="63.623047" xlink:href="#DejaVuSans-51"/>
       <use x="127.246094" xlink:href="#DejaVuSans-58"/>
       <use x="160.9375" xlink:href="#DejaVuSans-53"/>
       <use x="224.560547" xlink:href="#DejaVuSans-55"/>
       <use x="288.183594" xlink:href="#DejaVuSans-58"/>
       <use x="321.875" xlink:href="#DejaVuSans-51"/>
       <use x="385.498047" xlink:href="#DejaVuSans-48"/>
      </g>
     </g>
    </g>
   </g>
   <g id="matplotlib.axis_2">
    <g id="ytick_1">
     <g id="line2d_17">
      <path clip-path="url(#pab15c3f3f3)" d="M 216 158.607818 
L 1555.2 158.607818 
" style="fill:none;stroke:#b0b0b0;stroke-linecap:square;stroke-width:0.8;"/>
     </g>
     <g id="line2d_18">
      <defs>
       <path d="M 0 0 
L -3.5 0 
" id="m9d156cfa56" style="stroke:#000000;stroke-width:0.8;"/>
      </defs>
      <g>
       <use style="stroke:#000000;stroke-width:0.8;" x="216" xlink:href="#m9d156cfa56" y="158.607818"/>
      </g>
     </g>
     <g id="text_9">
      <!-- 23.0 -->
      <defs>
       <path d="M 10.6875 12.40625 
L 21 12.40625 
L 21 0 
L 10.6875 0 
z
" id="DejaVuSans-46"/>
      </defs>
      <g transform="translate(186.734375 162.407037)scale(0.1 -0.1)">
       <use xlink:href="#DejaVuSans-50"/>
       <use x="63.623047" xlink:href="#DejaVuSans-51"/>
       <use x="127.246094" xlink:href="#DejaVuSans-46"/>
       <use x="159.033203" xlink:href="#DejaVuSans-48"/>
      </g>
     </g>
    </g>
    <g id="ytick_2">
     <g id="line2d_19">
      <path clip-path="url(#pab15c3f3f3)" d="M 216 122.656091 
L 1555.2 122.656091 
" style="fill:none;stroke:#b0b0b0;stroke-linecap:square;stroke-width:0.8;"/>
     </g>
     <g id="line2d_20">
      <g>
       <use style="stroke:#000000;stroke-width:0.8;" x="216" xlink:href="#m9d156cfa56" y="122.656091"/>
      </g>
     </g>
     <g id="text_10">
      <!-- 23.5 -->
      <g transform="translate(186.734375 126.45531)scale(0.1 -0.1)">
       <use xlink:href="#DejaVuSans-50"/>
       <use x="63.623047" xlink:href="#DejaVuSans-51"/>
       <use x="127.246094" xlink:href="#DejaVuSans-46"/>
       <use x="159.033203" xlink:href="#DejaVuSans-53"/>
      </g>
     </g>
    </g>
    <g id="ytick_3">
     <g id="line2d_21">
      <path clip-path="url(#pab15c3f3f3)" d="M 216 86.704364 
L 1555.2 86.704364 
" style="fill:none;stroke:#b0b0b0;stroke-linecap:square;stroke-width:0.8;"/>
     </g>
     <g id="line2d_22">
      <g>
       <use style="stroke:#000000;stroke-width:0.8;" x="216" xlink:href="#m9d156cfa56" y="86.704364"/>
      </g>
     </g>
     <g id="text_11">
      <!-- 24.0 -->
      <g transform="translate(186.734375 90.503582)scale(0.1 -0.1)">
       <use xlink:href="#DejaVuSans-50"/>
       <use x="63.623047" xlink:href="#DejaVuSans-52"/>
       <use x="127.246094" xlink:href="#DejaVuSans-46"/>
       <use x="159.033203" xlink:href="#DejaVuSans-48"/>
      </g>
     </g>
    </g>
    <g id="ytick_4">
     <g id="line2d_23">
      <path clip-path="url(#pab15c3f3f3)" d="M 216 50.752636 
L 1555.2 50.752636 
" style="fill:none;stroke:#b0b0b0;stroke-linecap:square;stroke-width:0.8;"/>
     </g>
     <g id="line2d_24">
      <g>
       <use style="stroke:#000000;stroke-width:0.8;" x="216" xlink:href="#m9d156cfa56" y="50.752636"/>
      </g>
     </g>
     <g id="text_12">
      <!-- 24.5 -->
      <g transform="translate(186.734375 54.551855)scale(0.1 -0.1)">
       <use xlink:href="#DejaVuSans-50"/>
       <use x="63.623047" xlink:href="#DejaVuSans-52"/>
       <use x="127.246094" xlink:href="#DejaVuSans-46"/>
       <use x="159.033203" xlink:href="#DejaVuSans-53"/>
      </g>
     </g>
    </g>
   </g>
   <g id="line2d_25">
    <path clip-path="url(#pab15c3f3f3)" d="M 276.87262 33.332727 
L 281.966614 107.46 
L 287.060547 33.332727 
L 307.43634 33.332727 
L 312.530334 107.46 
L 317.624329 33.332727 
L 317.624329 33.332727 
L 322.718201 33.332727 
L 327.812195 107.46 
L 332.906128 33.332727 
L 338.000122 33.332727 
L 338.000122 33.332727 
L 343.094055 107.46 
L 348.187988 33.332727 
L 353.281921 107.46 
L 358.375916 33.332727 
L 358.375916 33.332727 
L 363.469849 33.332727 
L 368.563782 107.46 
L 373.657776 107.46 
L 378.751709 33.332727 
L 378.751709 33.332727 
L 409.31543 33.332727 
L 414.409363 107.46 
L 419.503296 33.332727 
L 419.503296 33.332727 
L 429.691223 33.332727 
L 434.785156 107.46 
L 439.879089 107.46 
L 439.879089 33.332727 
L 460.254944 33.332727 
L 460.254944 33.332727 
L 465.348877 107.46 
L 470.442871 107.46 
L 475.536804 33.332727 
L 485.72467 33.332727 
L 490.818665 107.46 
L 495.912598 107.46 
L 501.006531 33.332727 
L 501.006531 33.332727 
L 541.758179 33.332727 
L 541.758179 107.46 
L 546.852112 33.332727 
L 557.040039 33.332727 
L 562.133972 107.46 
L 562.133972 33.332727 
L 572.321838 33.332727 
L 577.415833 107.46 
L 582.509827 33.332727 
L 582.509827 107.46 
L 587.60376 33.332727 
L 592.697693 33.332727 
L 597.791626 107.46 
L 602.88562 33.332727 
L 602.88562 33.332727 
L 613.073486 33.332727 
L 618.167419 107.46 
L 623.261414 33.332727 
L 623.261414 33.332727 
L 628.355347 107.46 
L 633.449341 107.46 
L 638.543274 33.332727 
L 643.637207 33.332727 
L 643.637207 107.46 
L 648.731201 33.332727 
L 653.825134 107.46 
L 658.919067 33.332727 
L 664.013 33.332727 
L 664.013 107.46 
L 669.106995 107.46 
L 674.200928 33.332727 
L 679.294922 107.46 
L 684.388794 33.332727 
L 684.388794 107.46 
L 689.482788 33.332727 
L 699.670715 33.332727 
L 704.764648 107.46 
L 704.764648 33.332727 
L 714.952576 33.332727 
L 720.046509 107.46 
L 725.140442 107.46 
L 725.140442 107.46 
L 730.234375 33.332727 
L 735.328369 33.332727 
L 740.422302 107.46 
L 745.516296 33.332727 
L 745.516296 33.332727 
L 750.610168 107.46 
L 755.704163 33.332727 
L 765.89209 33.332727 
L 765.89209 107.46 
L 770.986023 33.332727 
L 776.079956 107.46 
L 781.17395 33.332727 
L 796.45575 33.332727 
L 801.549744 107.46 
L 806.643677 33.332727 
L 806.643677 33.332727 
L 842.301331 33.332727 
L 847.395325 107.46 
L 847.395325 107.46 
L 852.489258 33.332727 
L 883.052979 33.332727 
L 888.146912 107.46 
L 888.146912 33.332727 
L 903.428833 33.332727 
L 908.522705 107.46 
L 908.522705 107.46 
L 913.616699 33.332727 
L 918.710632 33.332727 
L 923.804626 107.46 
L 928.89856 33.332727 
L 928.89856 107.46 
L 933.992493 33.332727 
L 949.274353 33.332727 
L 949.274353 33.332727 
L 954.368286 107.46 
L 959.46228 33.332727 
L 979.838074 33.332727 
L 984.932007 107.46 
L 990.026001 33.332727 
L 990.026001 33.332727 
L 995.119934 107.46 
L 1000.213867 33.332727 
L 1010.401794 33.332727 
L 1010.401794 181.587273 
L 1015.495728 33.332727 
L 1071.529175 33.332727 
L 1071.529175 33.332727 
L 1076.623169 107.46 
L 1081.717102 33.332727 
L 1086.811035 33.332727 
L 1091.905029 107.46 
L 1091.905029 33.332727 
L 1107.18689 33.332727 
L 1112.280823 107.46 
L 1112.280823 33.332727 
L 1153.032471 33.332727 
L 1153.032471 107.46 
L 1158.126404 33.332727 
L 1168.314331 33.332727 
L 1173.408264 107.46 
L 1173.408264 107.46 
L 1178.502197 107.46 
L 1183.59613 33.332727 
L 1203.971924 33.332727 
L 1209.065918 107.46 
L 1214.159851 33.332727 
L 1214.159851 33.332727 
L 1219.253845 33.332727 
L 1224.347778 107.46 
L 1229.441711 33.332727 
L 1290.569153 33.332727 
L 1295.663086 107.46 
L 1295.663086 33.332727 
L 1305.851013 33.332727 
L 1310.945007 107.46 
L 1316.038879 33.332727 
L 1321.132874 33.332727 
L 1321.132874 33.332727 
L 1326.226807 107.46 
L 1331.320801 107.46 
L 1336.414673 33.332727 
L 1336.414673 33.332727 
L 1361.88446 33.332727 
L 1366.978455 107.46 
L 1372.072388 33.332727 
L 1382.260254 33.332727 
L 1382.260254 107.46 
L 1387.354248 33.332727 
L 1397.542175 33.332727 
L 1397.542175 107.46 
L 1402.636108 33.332727 
L 1407.730042 107.46 
L 1412.824036 33.332727 
L 1428.105835 33.332727 
L 1433.199829 107.46 
L 1438.293762 33.332727 
L 1443.387756 33.332727 
L 1443.387756 107.46 
L 1448.481628 33.332727 
L 1458.669556 33.332727 
L 1458.669556 33.332727 
L 1463.76355 107.46 
L 1468.857483 107.46 
L 1473.951416 33.332727 
L 1494.327209 33.332727 
L 1494.327209 33.332727 
" style="fill:none;stroke:#0000ff;stroke-linecap:square;stroke-opacity:0.75;stroke-width:1.5;"/>
   </g>
   <g id="line2d_26">
    <path clip-path="url(#pab15c3f3f3)" d="M 276.87262 42.157167 
L 276.87262 42.286914 
L 281.966614 42.555455 
L 292.154541 43.455946 
L 297.248474 44.057057 
L 297.248474 44.735758 
L 312.530334 47.046488 
L 317.624329 47.842884 
L 317.624329 48.620764 
L 327.812195 50.053473 
L 338.000122 51.227892 
L 338.000122 51.691408 
L 348.187988 52.34045 
L 358.375916 52.619276 
L 368.563782 52.414134 
L 378.751709 52.007376 
L 378.751709 51.767201 
L 394.033569 51.089366 
L 399.127502 50.920671 
L 399.127502 50.794973 
L 409.31543 50.683688 
L 419.503296 50.746783 
L 419.503296 50.829828 
L 439.879089 51.295973 
L 439.879089 51.39628 
L 455.161011 51.520512 
L 460.254944 51.390042 
L 470.442871 51.04532 
L 480.630737 50.482201 
L 480.630737 50.128714 
L 495.912598 48.885422 
L 501.006531 48.451568 
L 501.006531 48.033243 
L 511.194458 47.308526 
L 521.382385 46.714796 
L 531.570251 46.757771 
L 541.758179 47.177076 
L 541.758179 47.520598 
L 551.946045 48.443984 
L 562.133972 49.628616 
L 562.133972 50.297085 
L 577.415833 52.505829 
L 582.509827 53.28502 
L 582.509827 54.075557 
L 602.88562 57.276314 
L 602.88562 58.072424 
L 623.261414 61.138258 
L 623.261414 61.848376 
L 633.449341 63.157362 
L 643.637207 64.280176 
L 643.637207 64.760359 
L 653.825134 65.542087 
L 669.106995 66.349868 
L 679.294922 66.382827 
L 684.388794 66.315197 
L 684.388794 66.196438 
L 694.576721 65.819165 
L 704.764648 65.268254 
L 704.764648 64.927056 
L 714.952576 64.099876 
L 725.140442 63.053197 
L 725.140442 62.438792 
L 735.328369 61.02259 
L 745.516296 59.369804 
L 745.516296 58.465203 
L 760.798096 55.51681 
L 765.89209 54.48282 
L 765.89209 53.438547 
L 781.17395 50.350614 
L 786.267883 49.375399 
L 786.267883 48.447602 
L 796.45575 46.780217 
L 806.643677 45.430373 
L 806.643677 44.895158 
L 816.831604 44.132685 
L 827.01947 43.783672 
L 837.207397 44.048205 
L 847.395325 44.646958 
L 847.395325 45.05069 
L 857.583252 46.02809 
L 867.771118 47.185781 
L 867.771118 47.813934 
L 888.146912 50.434242 
L 888.146912 51.059405 
L 898.334839 52.190446 
L 908.522705 53.091079 
L 908.522705 53.433686 
L 918.710632 53.881762 
L 928.89856 54.018048 
L 928.89856 53.980755 
L 939.086426 53.735767 
L 949.274353 53.326847 
L 949.274353 53.082948 
L 969.650208 51.979367 
L 969.650208 51.683331 
L 990.026001 50.355478 
L 990.026001 49.963316 
L 1005.3078 48.584319 
L 1010.401794 48.057625 
L 1010.401794 47.503682 
L 1030.777588 45.205938 
L 1030.777588 44.672939 
L 1040.965515 43.743646 
L 1051.153381 43.057572 
L 1051.153381 42.819841 
L 1061.341309 42.561144 
L 1071.529175 42.573122 
L 1071.529175 42.667464 
L 1081.717102 43.000285 
L 1091.905029 43.487421 
L 1091.905029 43.77912 
L 1107.18689 44.830675 
L 1112.280823 45.240377 
L 1112.280823 45.680559 
L 1127.562683 47.18113 
L 1132.656616 47.733395 
L 1132.656616 48.302433 
L 1153.032471 50.523888 
L 1153.032471 50.992311 
L 1163.220337 51.710575 
L 1173.408264 52.041571 
L 1173.408264 52.035465 
L 1178.502197 51.908257 
L 1183.59613 51.660394 
L 1193.784058 50.824494 
L 1193.784058 50.255023 
L 1203.971924 48.874712 
L 1214.159851 47.270728 
L 1214.159851 46.425861 
L 1229.441711 43.936131 
L 1234.535706 43.183002 
L 1234.535706 42.498248 
L 1244.723572 41.396353 
L 1249.817505 41.004608 
L 1254.911499 40.731117 
L 1260.005432 40.55555 
L 1265.099426 40.653137 
L 1275.287292 41.192668 
L 1275.287292 41.614645 
L 1285.47522 42.693899 
L 1295.663086 43.975351 
L 1295.663086 44.648227 
L 1310.945007 46.605614 
L 1321.132874 47.738291 
L 1321.132874 48.229534 
L 1331.320801 49.050472 
L 1336.414673 49.384151 
L 1336.414673 49.673436 
L 1351.696594 50.347193 
L 1356.790527 50.530079 
L 1356.790527 50.700876 
L 1392.448181 51.7549 
L 1412.824036 51.965053 
L 1428.105835 51.85056 
L 1443.387756 51.573651 
L 1484.139343 50.958111 
L 1494.327209 51.019823 
L 1494.327209 51.019823 
" style="fill:none;stroke:#000000;stroke-linecap:square;stroke-width:1.5;"/>
   </g>
   <g id="patch_3">
    <path d="M 216 189 
L 216 25.92 
" style="fill:none;stroke:#000000;stroke-linecap:square;stroke-linejoin:miter;stroke-width:0.8;"/>
   </g>
   <g id="patch_4">
    <path d="M 1555.2 189 
L 1555.2 25.92 
" style="fill:none;stroke:#000000;stroke-linecap:square;stroke-linejoin:miter;stroke-width:0.8;"/>
   </g>
   <g id="patch_5">
    <path d="M 215.999939 189 
L 1555.199951 189 
" style="fill:none;stroke:#000000;stroke-linecap:square;stroke-linejoin:miter;stroke-width:0.8;"/>
   </g>
   <g id="patch_6">
    <path d="M 215.999939 25.92 
L 1555.199951 25.92 
" style="fill:none;stroke:#000000;stroke-linecap:square;stroke-linejoin:miter;stroke-width:0.8;"/>
   </g>
   <g id="text_13">
    <!-- P2 -->
    <defs>
     <path d="M 19.671875 64.796875 
L 19.671875 37.40625 
L 32.078125 37.40625 
Q 38.96875 37.40625 42.71875 40.96875 
Q 46.484375 44.53125 46.484375 51.125 
Q 46.484375 57.671875 42.71875 61.234375 
Q 38.96875 64.796875 32.078125 64.796875 
z
M 9.8125 72.90625 
L 32.078125 72.90625 
Q 44.34375 72.90625 50.609375 67.359375 
Q 56.890625 61.8125 56.890625 51.125 
Q 56.890625 40.328125 50.609375 34.8125 
Q 44.34375 29.296875 32.078125 29.296875 
L 19.671875 29.296875 
L 19.671875 0 
L 9.8125 0 
z
" id="DejaVuSans-80"/>
    </defs>
    <g transform="translate(878.164688 19.92)scale(0.12 -0.12)">
     <use xlink:href="#DejaVuSans-80"/>
     <use x="60.302734" xlink:href="#DejaVuSans-50"/>
    </g>
   </g>
   <g id="legend_1">
    <g id="patch_7">
     <path d="M 223 184 
L 314.120313 184 
Q 316.120313 184 316.120313 182 
L 316.120313 153.64375 
Q 316.120313 151.64375 314.120313 151.64375 
L 223 151.64375 
Q 221 151.64375 221 153.64375 
L 221 182 
Q 221 184 223 184 
z
" style="fill:#ffffff;opacity:0.8;stroke:#cccccc;stroke-linejoin:miter;"/>
    </g>
    <g id="line2d_27">
     <path d="M 225 159.742188 
L 245 159.742188 
" style="fill:none;stroke:#0000ff;stroke-linecap:square;stroke-opacity:0.75;stroke-width:1.5;"/>
    </g>
    <g id="line2d_28"/>
    <g id="text_14">
     <!-- noisy signal -->
     <defs>
      <path d="M 54.890625 33.015625 
L 54.890625 0 
L 45.90625 0 
L 45.90625 32.71875 
Q 45.90625 40.484375 42.875 44.328125 
Q 39.84375 48.1875 33.796875 48.1875 
Q 26.515625 48.1875 22.3125 43.546875 
Q 18.109375 38.921875 18.109375 30.90625 
L 18.109375 0 
L 9.078125 0 
L 9.078125 54.6875 
L 18.109375 54.6875 
L 18.109375 46.1875 
Q 21.34375 51.125 25.703125 53.5625 
Q 30.078125 56 35.796875 56 
Q 45.21875 56 50.046875 50.171875 
Q 54.890625 44.34375 54.890625 33.015625 
z
" id="DejaVuSans-110"/>
      <path d="M 30.609375 48.390625 
Q 23.390625 48.390625 19.1875 42.75 
Q 14.984375 37.109375 14.984375 27.296875 
Q 14.984375 17.484375 19.15625 11.84375 
Q 23.34375 6.203125 30.609375 6.203125 
Q 37.796875 6.203125 41.984375 11.859375 
Q 46.1875 17.53125 46.1875 27.296875 
Q 46.1875 37.015625 41.984375 42.703125 
Q 37.796875 48.390625 30.609375 48.390625 
z
M 30.609375 56 
Q 42.328125 56 49.015625 48.375 
Q 55.71875 40.765625 55.71875 27.296875 
Q 55.71875 13.875 49.015625 6.21875 
Q 42.328125 -1.421875 30.609375 -1.421875 
Q 18.84375 -1.421875 12.171875 6.21875 
Q 5.515625 13.875 5.515625 27.296875 
Q 5.515625 40.765625 12.171875 48.375 
Q 18.84375 56 30.609375 56 
z
" id="DejaVuSans-111"/>
      <path d="M 9.421875 54.6875 
L 18.40625 54.6875 
L 18.40625 0 
L 9.421875 0 
z
M 9.421875 75.984375 
L 18.40625 75.984375 
L 18.40625 64.59375 
L 9.421875 64.59375 
z
" id="DejaVuSans-105"/>
      <path d="M 44.28125 53.078125 
L 44.28125 44.578125 
Q 40.484375 46.53125 36.375 47.5 
Q 32.28125 48.484375 27.875 48.484375 
Q 21.1875 48.484375 17.84375 46.4375 
Q 14.5 44.390625 14.5 40.28125 
Q 14.5 37.15625 16.890625 35.375 
Q 19.28125 33.59375 26.515625 31.984375 
L 29.59375 31.296875 
Q 39.15625 29.25 43.1875 25.515625 
Q 47.21875 21.78125 47.21875 15.09375 
Q 47.21875 7.46875 41.1875 3.015625 
Q 35.15625 -1.421875 24.609375 -1.421875 
Q 20.21875 -1.421875 15.453125 -0.5625 
Q 10.6875 0.296875 5.421875 2 
L 5.421875 11.28125 
Q 10.40625 8.6875 15.234375 7.390625 
Q 20.0625 6.109375 24.8125 6.109375 
Q 31.15625 6.109375 34.5625 8.28125 
Q 37.984375 10.453125 37.984375 14.40625 
Q 37.984375 18.0625 35.515625 20.015625 
Q 33.0625 21.96875 24.703125 23.78125 
L 21.578125 24.515625 
Q 13.234375 26.265625 9.515625 29.90625 
Q 5.8125 33.546875 5.8125 39.890625 
Q 5.8125 47.609375 11.28125 51.796875 
Q 16.75 56 26.8125 56 
Q 31.78125 56 36.171875 55.265625 
Q 40.578125 54.546875 44.28125 53.078125 
z
" id="DejaVuSans-115"/>
      <path d="M 32.171875 -5.078125 
Q 28.375 -14.84375 24.75 -17.8125 
Q 21.140625 -20.796875 15.09375 -20.796875 
L 7.90625 -20.796875 
L 7.90625 -13.28125 
L 13.1875 -13.28125 
Q 16.890625 -13.28125 18.9375 -11.515625 
Q 21 -9.765625 23.484375 -3.21875 
L 25.09375 0.875 
L 2.984375 54.6875 
L 12.5 54.6875 
L 29.59375 11.921875 
L 46.6875 54.6875 
L 56.203125 54.6875 
z
" id="DejaVuSans-121"/>
      <path id="DejaVuSans-32"/>
      <path d="M 45.40625 27.984375 
Q 45.40625 37.75 41.375 43.109375 
Q 37.359375 48.484375 30.078125 48.484375 
Q 22.859375 48.484375 18.828125 43.109375 
Q 14.796875 37.75 14.796875 27.984375 
Q 14.796875 18.265625 18.828125 12.890625 
Q 22.859375 7.515625 30.078125 7.515625 
Q 37.359375 7.515625 41.375 12.890625 
Q 45.40625 18.265625 45.40625 27.984375 
z
M 54.390625 6.78125 
Q 54.390625 -7.171875 48.1875 -13.984375 
Q 42 -20.796875 29.203125 -20.796875 
Q 24.46875 -20.796875 20.265625 -20.09375 
Q 16.0625 -19.390625 12.109375 -17.921875 
L 12.109375 -9.1875 
Q 16.0625 -11.328125 19.921875 -12.34375 
Q 23.78125 -13.375 27.78125 -13.375 
Q 36.625 -13.375 41.015625 -8.765625 
Q 45.40625 -4.15625 45.40625 5.171875 
L 45.40625 9.625 
Q 42.625 4.78125 38.28125 2.390625 
Q 33.9375 0 27.875 0 
Q 17.828125 0 11.671875 7.65625 
Q 5.515625 15.328125 5.515625 27.984375 
Q 5.515625 40.671875 11.671875 48.328125 
Q 17.828125 56 27.875 56 
Q 33.9375 56 38.28125 53.609375 
Q 42.625 51.21875 45.40625 46.390625 
L 45.40625 54.6875 
L 54.390625 54.6875 
z
" id="DejaVuSans-103"/>
      <path d="M 34.28125 27.484375 
Q 23.390625 27.484375 19.1875 25 
Q 14.984375 22.515625 14.984375 16.5 
Q 14.984375 11.71875 18.140625 8.90625 
Q 21.296875 6.109375 26.703125 6.109375 
Q 34.1875 6.109375 38.703125 11.40625 
Q 43.21875 16.703125 43.21875 25.484375 
L 43.21875 27.484375 
z
M 52.203125 31.203125 
L 52.203125 0 
L 43.21875 0 
L 43.21875 8.296875 
Q 40.140625 3.328125 35.546875 0.953125 
Q 30.953125 -1.421875 24.3125 -1.421875 
Q 15.921875 -1.421875 10.953125 3.296875 
Q 6 8.015625 6 15.921875 
Q 6 25.140625 12.171875 29.828125 
Q 18.359375 34.515625 30.609375 34.515625 
L 43.21875 34.515625 
L 43.21875 35.40625 
Q 43.21875 41.609375 39.140625 45 
Q 35.0625 48.390625 27.6875 48.390625 
Q 23 48.390625 18.546875 47.265625 
Q 14.109375 46.140625 10.015625 43.890625 
L 10.015625 52.203125 
Q 14.9375 54.109375 19.578125 55.046875 
Q 24.21875 56 28.609375 56 
Q 40.484375 56 46.34375 49.84375 
Q 52.203125 43.703125 52.203125 31.203125 
z
" id="DejaVuSans-97"/>
      <path d="M 9.421875 75.984375 
L 18.40625 75.984375 
L 18.40625 0 
L 9.421875 0 
z
" id="DejaVuSans-108"/>
     </defs>
     <g transform="translate(253 163.242188)scale(0.1 -0.1)">
      <use xlink:href="#DejaVuSans-110"/>
      <use x="63.378906" xlink:href="#DejaVuSans-111"/>
      <use x="124.560547" xlink:href="#DejaVuSans-105"/>
      <use x="152.34375" xlink:href="#DejaVuSans-115"/>
      <use x="204.443359" xlink:href="#DejaVuSans-121"/>
      <use x="263.623047" xlink:href="#DejaVuSans-32"/>
      <use x="295.410156" xlink:href="#DejaVuSans-115"/>
      <use x="347.509766" xlink:href="#DejaVuSans-105"/>
      <use x="375.292969" xlink:href="#DejaVuSans-103"/>
      <use x="438.769531" xlink:href="#DejaVuSans-110"/>
      <use x="502.148438" xlink:href="#DejaVuSans-97"/>
      <use x="563.427734" xlink:href="#DejaVuSans-108"/>
     </g>
    </g>
    <g id="line2d_29">
     <path d="M 225 174.420312 
L 245 174.420312 
" style="fill:none;stroke:#000000;stroke-linecap:square;stroke-width:1.5;"/>
    </g>
    <g id="line2d_30"/>
    <g id="text_15">
     <!-- filtfilt -->
     <defs>
      <path d="M 37.109375 75.984375 
L 37.109375 68.5 
L 28.515625 68.5 
Q 23.6875 68.5 21.796875 66.546875 
Q 19.921875 64.59375 19.921875 59.515625 
L 19.921875 54.6875 
L 34.71875 54.6875 
L 34.71875 47.703125 
L 19.921875 47.703125 
L 19.921875 0 
L 10.890625 0 
L 10.890625 47.703125 
L 2.296875 47.703125 
L 2.296875 54.6875 
L 10.890625 54.6875 
L 10.890625 58.5 
Q 10.890625 67.625 15.140625 71.796875 
Q 19.390625 75.984375 28.609375 75.984375 
z
" id="DejaVuSans-102"/>
      <path d="M 18.3125 70.21875 
L 18.3125 54.6875 
L 36.8125 54.6875 
L 36.8125 47.703125 
L 18.3125 47.703125 
L 18.3125 18.015625 
Q 18.3125 11.328125 20.140625 9.421875 
Q 21.96875 7.515625 27.59375 7.515625 
L 36.8125 7.515625 
L 36.8125 0 
L 27.59375 0 
Q 17.1875 0 13.234375 3.875 
Q 9.28125 7.765625 9.28125 18.015625 
L 9.28125 47.703125 
L 2.6875 47.703125 
L 2.6875 54.6875 
L 9.28125 54.6875 
L 9.28125 70.21875 
z
" id="DejaVuSans-116"/>
     </defs>
     <g transform="translate(253 177.920312)scale(0.1 -0.1)">
      <use xlink:href="#DejaVuSans-102"/>
      <use x="35.205078" xlink:href="#DejaVuSans-105"/>
      <use x="62.988281" xlink:href="#DejaVuSans-108"/>
      <use x="90.771484" xlink:href="#DejaVuSans-116"/>
      <use x="129.980469" xlink:href="#DejaVuSans-102"/>
      <use x="165.185547" xlink:href="#DejaVuSans-105"/>
      <use x="192.96875" xlink:href="#DejaVuSans-108"/>
      <use x="220.751953" xlink:href="#DejaVuSans-116"/>
     </g>
    </g>
   </g>
  </g>
 </g>
 <defs>
  <clipPath id="pab15c3f3f3">
   <rect height="163.08" width="1339.2" x="216" y="25.92"/>
  </clipPath>
 </defs>
</svg>
